<svg width="499" height="657" fill="none" xmlns="http://www.w3.org/2000/svg"><rect x="10" y="54" width="436" height="521" rx="40" fill="#FFBD9E"/><path d="M201.479 203.577 146.405 55.073l203.577 93.431-148.503 55.073Z" fill="#FF7237"/><path fill-rule="evenodd" clip-rule="evenodd" d="M61.905 415.673a152.31 152.31 0 0 1 64.536-97.078l53.118 79.094c-11.902 8.885-20.287 21.634-23.475 35.821-3.414 15.196-.588 30.797 7.858 43.373 8.445 12.575 21.817 21.094 37.175 23.683 14.339 2.417 29.313-.521 42.04-8.177l53.114 79.088A152.308 152.308 0 0 1 61.905 415.673Z" fill="#8D81E4"/><path d="m413.834 186.111-1.758 179.901-145.891-77.104 147.649-102.797Z" fill="#5275D1"/><circle cx="271.16" cy="401.755" r="45.253" transform="rotate(27.873 271.16 401.755)" fill="#79DA7E"/></svg>