<svg width="375" height="359" fill="none" xmlns="http://www.w3.org/2000/svg"><path fill-rule="evenodd" clip-rule="evenodd" d="M2.208 232.969a79.243 79.243 0 0 1 33.577-50.507l27.636 41.151c-6.192 4.622-10.554 11.255-12.213 18.637-1.776 7.906-.306 16.023 4.088 22.566 4.394 6.542 11.351 10.974 19.342 12.321 7.46 1.258 15.25-.271 21.872-4.254l27.634 41.148A79.242 79.242 0 0 1 2.208 232.969Z" fill="#8D81E4"/><circle cx="238.819" cy="114.82" r="23.544" transform="rotate(27.873 238.819 114.82)" fill="#8D81E4"/><path d="M136 260.845 174.525 188l34.32 111.37L136 260.845Z" fill="#FF7237"/><path d="m293.495 27.111 81.432 46.156-71.872 46.958-9.56-93.114Z" fill="#79DA7E"/><path d="m172.684 138.691-55.241 97.573-56.292-86.067 111.533-11.506Z" fill="#FF4A00"/></svg>