<svg width="379" height="379" fill="none" xmlns="http://www.w3.org/2000/svg"><mask id="a" style="mask-type:alpha" maskUnits="userSpaceOnUse" x="0" y="0" width="379" height="379"><path fill="#D9D9D9" d="M0 0h379v379H0z"/></mask><g mask="url(#a)"><path d="M-261.872 235.658c61.191-27.903 322.977-180.576 366.846-201.433C177.465-.283 233.587 6.096 225.84 28.065c26.673 6.536 25.531 24.31 20.047 29.558 14.917 2.506 32.263 23.09 13.091 29.436 15.654-3.493 52.949 1.83 85.531 24.622 19.28 13.573 11.027 19.867.855 19.994-8.021.103-50.648-2.216-80.498 5.95-75.804 20.909-49.905 67.328 10.09 38.554 18.24-8.793 49.622-15.96 61.339-10.898 14.838 6.452-11.175 11.465-39.667 41.698-55.879 59.208-256.02 146.275-301.987 170.313l-256.513-141.634Z" fill="#D9744F"/><path d="M258.202 98.424c-16.962.871-52.811 7.748-79.284 18.41M164.01 82.831c18.82-8.182 65.106-17.03 80.035-13.85m-21.076-29.436c-21.194-1.164-52.27 10.247-68.978 16.658m7.041 41.673c2.835-1.206 5.669-2.412 8.429-3.439m5.112 35.859c2.835-1.206 5.669-2.412 8.429-3.438m-39.817-57.766 8.195-4.32" stroke="#020302" stroke-width="1.3" stroke-miterlimit="10" stroke-linecap="round" stroke-linejoin="round"/></g></svg>