<svg width="579" height="706" fill="none" xmlns="http://www.w3.org/2000/svg"><path fill-rule="evenodd" clip-rule="evenodd" d="M62.235 465.078A152.31 152.31 0 0 1 126.77 368l53.118 79.095c-11.902 8.884-20.287 21.633-23.475 35.821-3.414 15.195-.588 30.797 7.858 43.372 8.445 12.575 21.817 21.094 37.175 23.683 14.339 2.417 29.313-.521 42.04-8.177l53.114 79.089A152.312 152.312 0 0 1 62.235 465.078Z" fill="#8D81E4"/><circle cx="517.708" cy="545.529" r="45.253" transform="rotate(27.873 517.708 545.529)" fill="#8D81E4"/><path d="m312.564 485.83 74.048-140.012 65.964 214.059-140.012-74.047Z" fill="#FF7237"/><path d="m299.086 52.11 156.517 88.712-138.142 90.256-18.375-178.969Z" fill="#79DA7E"/><path d="M313.497 258.508 207.321 446.049 99.124 280.624l214.373-22.116Z" fill="#FF4A00"/></svg>