<svg width="101" height="65" fill="none" xmlns="http://www.w3.org/2000/svg"><path d="M97.846.46v24.557H89.58v-9.05h-7.634v9.05h-8.265V.46h8.265v8.7h7.634V.46h8.265ZM12.004 48.141l-1.856 2.07v6.07H2.023V31.722h8.125v8.91l8.054-8.91h9l-9.806 10.805L27.692 56.28h-9.56l-6.129-8.139Zm48.253-9.998h-7.18v-6.42H75.7v6.42h-7.179V56.28h-8.264V38.143Z" fill="#000"/><path fill-rule="evenodd" clip-rule="evenodd" d="M59.714 3.668A12.522 12.522 0 0 1 68.568 0v7.833a5.087 5.087 0 0 0-3.243 1.369 4.574 4.574 0 0 0-1.452 3.32c0 1.245.522 2.44 1.452 3.32a5.087 5.087 0 0 0 3.243 1.369v7.832a12.521 12.521 0 0 1-8.854-21.375Z" fill="#524994"/><path d="M14.714.368 27.456 25.06H1.971L14.714.367Z" fill="#5275D1"/><path d="m42.67 31.635 12.742 24.691H29.927L42.67 31.635Z" fill="#FF4A00"/><path d="m85.523 31.635 12.742 24.691H72.781l12.742-24.691Z" fill="#79DA7E"/><path d="M30.715 25.014V.552l24.461 24.462H30.715Z" fill="#000"/><circle cx="46.532" cy="6.989" r="6.989" fill="#000"/></svg>