<svg width="535" height="705" fill="none" xmlns="http://www.w3.org/2000/svg"><path d="M216.287 218.539 157.166 59.121l218.539 100.297-159.418 59.121Z" fill="#FF7237"/><path fill-rule="evenodd" clip-rule="evenodd" d="M66.454 446.223a163.504 163.504 0 0 1 69.28-104.213l57.022 84.908c-12.777 9.537-21.778 23.223-25.2 38.453-3.665 16.313-.631 33.061 8.435 46.56 9.066 13.5 23.421 22.645 39.907 25.424 15.393 2.595 31.467-.559 45.13-8.778l57.017 84.901a163.503 163.503 0 0 1-251.59-167.255Z" fill="#8D81E4"/><path d="m444.249 199.789-1.887 193.123-156.613-82.771 158.5-110.352Z" fill="#5275D1"/><circle cx="289.088" cy="431.282" r="48.579" transform="rotate(27.873 289.088 431.282)" fill="#79DA7E"/></svg>